<svg width="370.640137" height="82.000000" viewBox="0 0 370.64 82" fill="none" xmlns="http://www.w3.org/2000/svg" xmlns:xlink="http://www.w3.org/1999/xlink">
	<desc>
			Created with Pixso.
	</desc>
	<defs/>
	<mask id="mask12_90" mask-type="alpha" maskUnits="userSpaceOnUse" x="0.000000" y="0.000000" width="370.640137" height="82.000000">
		<path id="Vector" d="M0 0L370.64 0L370.64 82L0 82L0 0Z" fill="#FFFFFF" fill-opacity="1.000000" fill-rule="nonzero"/>
	</mask>
	<g mask="url(#mask12_90)">
		<path id="Fill-1" d="M0 52.92L54.51 0L54.51 17.77C54.51 18.8 54.09 19.79 53.34 20.51L9.98 62.61L0 52.92ZM16.67 69.11L54.51 32.38L54.51 50.16C54.51 51.19 54.09 52.17 53.34 52.9L36.64 69.11L39.93 72.3L49.91 82L29.94 82L26.66 78.8L16.67 69.11ZM360.94 52.83L370.64 59.52C366.08 65.35 358.99 69.1 351.01 69.1C337.27 69.1 326.14 57.98 326.14 44.25C326.14 30.52 337.27 19.39 351.01 19.39C358.99 19.39 366.08 23.14 370.64 28.98L360.94 35.66C358.56 32.76 354.99 30.92 351.01 30.92C343.84 30.92 338.01 36.9 338.01 44.25C338.01 51.6 343.84 57.58 351.01 57.58C354.99 57.58 358.56 55.73 360.94 52.83ZM98.2 39.52L118.25 39.52L114.42 50.46L98.2 50.46L98.2 69.1L86.49 69.1L86.49 19.39L125.3 19.39L121.47 30.33L98.2 30.33L98.2 39.52ZM263.78 19.39L301.82 19.39L301.82 30.33L288.65 30.33L288.65 69.1L276.95 69.1L276.95 30.33L263.78 30.33L263.78 19.39ZM306.87 69.1L318.85 69.1L318.85 19.39L306.87 19.39L306.87 69.1ZM236.63 50.42L242.55 32.39L248.48 50.42L236.63 50.42ZM235.09 19.39L217.68 69.1L230.48 69.1L233.02 61.35L252.08 61.35L254.62 69.1L267.42 69.1L250.01 19.39L235.09 19.39ZM201.29 19.39L213 19.39L213 69.1L204.22 69.1L184.47 42.12L184.47 69.1L172.77 69.1L172.77 19.39L181.54 19.39L201.29 46.38L201.29 19.39ZM137.29 50.42L143.21 32.39L149.14 50.42L137.29 50.42ZM135.75 19.39L118.34 69.1L131.14 69.1L133.68 61.35L152.74 61.35L155.28 69.1L168.09 69.1L150.67 19.39L135.75 19.39Z" fill="#FFFFFF" fill-opacity="1.000000" fill-rule="evenodd"/>
	</g>
</svg>
