<svg width="158.000000" height="34.361572" viewBox="0 0 158 34.3616" fill="none" xmlns="http://www.w3.org/2000/svg" xmlns:xlink="http://www.w3.org/1999/xlink">
	<desc>
			Created with Pixso.
	</desc>
	<defs/>
	<mask id="mask12_98" mask-type="alpha" maskUnits="userSpaceOnUse" x="0.000000" y="0.000000" width="158.000000" height="34.361572">
		<path d="M0 0L158 0L158 34.36L0 34.36L0 0Z" fill="#FFFFFF" fill-opacity="1.000000" fill-rule="nonzero"/>
	</mask>
	<g mask="url(#mask12_98)">
		<path d="M4.76 23.16L28 0.98L28 8.43C28 8.86 27.82 9.27 27.5 9.58L9.02 27.22L4.76 23.16ZM11.87 29.94L28 14.55L28 22C28 22.43 27.82 22.84 27.5 23.15L20.38 29.94L21.78 31.28L26.04 35.34L17.53 35.34L16.13 34L11.87 29.94ZM158.63 23.12L162.76 25.92C160.82 28.37 157.8 29.94 154.4 29.94C148.54 29.94 143.79 25.27 143.79 19.52C143.79 13.77 148.54 9.11 154.4 9.11C157.8 9.11 160.82 10.68 162.76 13.12L158.63 15.92C157.61 14.71 156.09 13.94 154.4 13.94C151.34 13.94 148.86 16.44 148.86 19.52C148.86 22.6 151.34 25.11 154.4 25.11C156.09 25.11 157.61 24.33 158.63 23.12ZM46.62 17.54L55.17 17.54L53.54 22.13L46.62 22.13L46.62 29.94L41.64 29.94L41.64 9.11L58.18 9.11L56.54 13.69L46.62 13.69L46.62 17.54ZM117.21 9.11L133.43 9.11L133.43 13.69L127.81 13.69L127.81 29.94L122.82 29.94L122.82 13.69L117.21 13.69L117.21 9.11ZM135.58 29.94L140.69 29.94L140.69 9.11L135.58 9.11L135.58 29.94ZM105.64 22.11L108.16 14.55L110.69 22.11L105.64 22.11ZM104.98 9.11L97.56 29.94L103.02 29.94L104.1 26.69L112.22 26.69L113.31 29.94L118.76 29.94L111.34 9.11L104.98 9.11ZM90.57 9.11L95.56 9.11L95.56 29.94L91.82 29.94L83.4 18.63L83.4 29.94L78.41 29.94L78.41 9.11L82.15 9.11L90.57 20.41L90.57 9.11ZM63.29 22.11L65.81 14.55L68.34 22.11L63.29 22.11ZM62.63 9.11L55.21 29.94L60.67 29.94L61.75 26.69L69.88 26.69L70.96 29.94L76.42 29.94L69 9.11L62.63 9.11Z" fill="#262C27" fill-opacity="1.000000" fill-rule="evenodd"/>
	</g>
</svg>
