<?xml version="1.0" encoding="utf-8"?><svg viewBox="0 0 158 34.362" xmlns="http://www.w3.org/2000/svg" xmlns:xlink="http://www.w3.org/1999/xlink"><style>:root>svg{display:none}:root>svg:target{display:block}</style><svg fill="none" viewBox="0 0 158 34.362" id="logo" xmlns="http://www.w3.org/2000/svg"><mask id="aa" mask-type="alpha" maskUnits="userSpaceOnUse" x="0" y="0" width="158" height="34.362"><path d="M0 0h158v34.36H0V0Z" fill="#FFF"/></mask><g mask="url(#aa)"><path d="M4.76 23.16 28 .98v7.45c0 .43-.18.84-.5 1.15L9.02 27.22l-4.26-4.06Zm7.11 6.78L28 14.55V22c0 .43-.18.84-.5 1.15l-7.12 6.79 1.4 1.34 4.26 4.06h-8.51L16.13 34l-4.26-4.06Zm146.76-6.82 4.13 2.8a10.626 10.626 0 0 1-8.36 4.02c-5.86 0-10.61-4.67-10.61-10.42s4.75-10.41 10.61-10.41c3.4 0 6.42 1.57 8.36 4.01l-4.13 2.8a5.527 5.527 0 0 0-4.23-1.98c-3.06 0-5.54 2.5-5.54 5.58s2.48 5.59 5.54 5.59c1.69 0 3.21-.78 4.23-1.99ZM46.62 17.54h8.55l-1.63 4.59h-6.92v7.81h-4.98V9.11h16.54l-1.64 4.58h-9.92v3.85Zm70.59-8.43h16.22v4.58h-5.62v16.25h-4.99V13.69h-5.61V9.11Zm18.37 20.83h5.11V9.11h-5.11v20.83Zm-29.94-7.83 2.52-7.56 2.53 7.56h-5.05Zm-.66-13-7.42 20.83h5.46l1.08-3.25h8.12l1.09 3.25h5.45l-7.42-20.83h-6.36Zm-14.41 0h4.99v20.83h-3.74L83.4 18.63v11.31h-4.99V9.11h3.74l8.42 11.3V9.11Zm-27.28 13 2.52-7.56 2.53 7.56h-5.05Zm-.66-13-7.42 20.83h5.46l1.08-3.25h8.13l1.08 3.25h5.46L69 9.11h-6.37Z" fill="#262C27" fill-rule="evenodd"/></g></svg></svg>